<svg width="24" height="24" viewBox="0 0 24 24" fill="none" xmlns="http://www.w3.org/2000/svg">
<path d="M12 22.5C14.7848 22.5 17.4555 21.3938 19.4246 19.4246C21.3938 17.4555 22.5 14.7848 22.5 12C22.5 9.21523 21.3938 6.54451 19.4246 4.57538C17.4555 2.60625 14.7848 1.5 12 1.5C9.21523 1.5 6.54451 2.60625 4.57538 4.57538C2.60625 6.54451 1.5 9.21523 1.5 12C1.5 14.7848 2.60625 17.4555 4.57538 19.4246C6.54451 21.3938 9.21523 22.5 12 22.5ZM17.193 12.2865C17.156 12.376 17.102 12.4575 17.034 12.5265L17.0295 12.531L13.2795 16.281C13.1387 16.4216 12.9477 16.5006 12.7487 16.5004C12.5497 16.5003 12.3589 16.4211 12.2183 16.2803C12.0776 16.1394 11.9987 15.9485 11.9988 15.7495C11.999 15.5504 12.0782 15.3596 12.219 15.219L14.6895 12.75H7.5C7.30109 12.75 7.11032 12.671 6.96967 12.5303C6.82902 12.3897 6.75 12.1989 6.75 12C6.75 11.8011 6.82902 11.6103 6.96967 11.4697C7.11032 11.329 7.30109 11.25 7.5 11.25H14.6895L12.219 8.781C12.0782 8.64017 11.9991 8.44916 11.9991 8.25C11.9991 8.05084 12.0782 7.85983 12.219 7.719C12.3598 7.57817 12.5508 7.49905 12.75 7.49905C12.9492 7.49905 13.1402 7.57817 13.281 7.719L17.031 11.469L17.034 11.4735C17.1376 11.5783 17.2079 11.7114 17.2362 11.856C17.2645 12.0006 17.2495 12.1504 17.193 12.2865Z" fill="white"/>
</svg>
