<svg width="32" height="32" viewBox="0 0 32 32" fill="none" xmlns="http://www.w3.org/2000/svg">
<path fill-rule="evenodd" clip-rule="evenodd" d="M4.90007 13.5205H24.0801C24.3201 13.5205 24.5401 13.6205 24.7201 13.8005L27.7601 16.9205C28.3201 17.5005 27.9201 18.4805 27.1201 18.4805H7.94007C7.70007 18.4805 7.48007 18.3805 7.30007 18.2005L4.26007 15.0805C3.70007 14.5005 4.10007 13.5205 4.90007 13.5205ZM4.26007 9.38047L7.30007 6.26047C7.46007 6.08047 7.70007 5.98047 7.94007 5.98047H27.1001C27.9001 5.98047 28.3001 6.96047 27.7401 7.54047L24.7201 10.6605C24.5601 10.8405 24.3201 10.9405 24.0801 10.9405H4.90007C4.10007 10.9405 3.70007 9.96047 4.26007 9.38047ZM27.7401 22.6005L24.7001 25.7205C24.5201 25.9005 24.3001 26.0005 24.0601 26.0005H4.90007C4.10007 26.0005 3.70007 25.0205 4.26007 24.4405L7.30007 21.3205C7.46007 21.1405 7.70007 21.0405 7.94007 21.0405H27.1001C27.9001 21.0405 28.3001 22.0205 27.7401 22.6005Z" fill="#E088FF"/>
</svg>
