<svg width="32" height="32" viewBox="0 0 32 32" fill="none" xmlns="http://www.w3.org/2000/svg">
<path fill-rule="evenodd" clip-rule="evenodd" d="M4.89909 13.5205H24.0791C24.3191 13.5205 24.5391 13.6205 24.7191 13.8005L27.7591 16.9205C28.3191 17.5005 27.9191 18.4805 27.1191 18.4805H7.93909C7.69909 18.4805 7.47909 18.3805 7.29909 18.2005L4.25909 15.0805C3.69909 14.5005 4.09909 13.5205 4.89909 13.5205ZM4.25909 9.38047L7.29909 6.26047C7.45909 6.08047 7.69909 5.98047 7.93909 5.98047H27.0991C27.8991 5.98047 28.2991 6.96047 27.7391 7.54047L24.7191 10.6605C24.5591 10.8405 24.3191 10.9405 24.0791 10.9405H4.89909C4.09909 10.9405 3.69909 9.96047 4.25909 9.38047ZM27.7391 22.6005L24.6991 25.7205C24.5191 25.9005 24.2991 26.0005 24.0591 26.0005H4.89909C4.09909 26.0005 3.69909 25.0205 4.25909 24.4405L7.29909 21.3205C7.45909 21.1405 7.69909 21.0405 7.93909 21.0405H27.0991C27.8991 21.0405 28.2991 22.0205 27.7391 22.6005Z" fill="#E088FF"/>
</svg>
