<svg width="32" height="32" viewBox="0 0 32 32" fill="none" xmlns="http://www.w3.org/2000/svg">
<path fill-rule="evenodd" clip-rule="evenodd" d="M4.9 13.52H24.08C24.32 13.52 24.54 13.62 24.72 13.8L27.76 16.92C28.32 17.5 27.92 18.48 27.12 18.48H7.94C7.7 18.48 7.48 18.38 7.3 18.2L4.26 15.08C3.7 14.5 4.1 13.52 4.9 13.52ZM4.26 9.37998L7.3 6.25998C7.46 6.07998 7.7 5.97998 7.94 5.97998H27.1C27.9 5.97998 28.3 6.95998 27.74 7.53998L24.72 10.66C24.56 10.84 24.32 10.94 24.08 10.94H4.9C4.1 10.94 3.7 9.95998 4.26 9.37998ZM27.74 22.6L24.7 25.72C24.52 25.9 24.3 26 24.06 26H4.9C4.1 26 3.7 25.02 4.26 24.44L7.3 21.32C7.46 21.14 7.7 21.04 7.94 21.04H27.1C27.9 21.04 28.3 22.02 27.74 22.6Z" fill="white"/>
</svg>
