<svg width="28" height="32" viewBox="0 0 28 32" fill="none" xmlns="http://www.w3.org/2000/svg">
<path d="M3.21457 16.0002L3.23145 22.1894L8.49038 25.284V28.9075L0.153732 24.018V14.1903L3.21457 16.0002ZM3.21457 9.81099V13.4176L0.151855 11.6059V7.99925L3.21457 6.1875L6.29228 7.99925L3.21457 9.81099ZM10.6866 7.99925L13.7493 6.1875L16.827 7.99925L13.7493 9.81099L10.6866 7.99925Z" fill="#E8C54A"/>
<path d="M5.42773 20.9065V17.283L8.49045 19.0948V22.7014L5.42773 20.9065ZM10.6867 26.5818L13.7494 28.3936L16.8271 26.5818V30.1884L13.7494 32.0002L10.6867 30.1884V26.5818ZM21.2195 7.99925L24.2823 6.1875L27.36 7.99925V11.6059L24.2823 13.4176V9.81099L21.2195 7.99925ZM24.2823 22.1894L24.2991 16.0002L27.3619 14.1884V24.0161L19.0252 28.9056V25.2821L24.2823 22.1894Z" fill="#E8C54A"/>
<path d="M22.0861 20.9067L19.0234 22.7016V19.0949L22.0861 17.2832V20.9067Z" fill="#E8C54A"/>
<path d="M22.086 11.0937L22.1029 14.7171L16.829 17.8117V24.0159L13.7663 25.8108L10.7035 24.0159V17.8117L5.42961 14.7171V11.0937L8.50545 9.28191L13.7475 12.3915L19.0214 9.28191L22.0992 11.0937H22.086ZM5.42773 4.90634L13.7494 0L22.086 4.90634L19.0233 6.71808L13.7494 3.60849L8.49045 6.71808L5.42773 4.90634Z" fill="#E8C54A"/>
</svg>
