<svg width="29" height="32" viewBox="0 0 29 32" fill="none" xmlns="http://www.w3.org/2000/svg">
<path d="M4.03342 16.0002L4.05029 22.1894L9.30923 25.284V28.9075L0.972579 24.018V14.1903L4.03342 16.0002ZM4.03342 9.81099V13.4176L0.970703 11.6059V7.99925L4.03342 6.1875L7.11113 7.99925L4.03342 9.81099ZM11.5055 7.99925L14.5682 6.1875L17.6459 7.99925L14.5682 9.81099L11.5055 7.99925Z" fill="#E8C54A"/>
<path d="M6.24658 20.9065V17.283L9.30929 19.0948V22.7014L6.24658 20.9065ZM11.5055 26.5818L14.5682 28.3936L17.6459 26.5818V30.1884L14.5682 32.0002L11.5055 30.1884V26.5818ZM22.0384 7.99925L25.1011 6.1875L28.1788 7.99925V11.6059L25.1011 13.4176V9.81099L22.0384 7.99925ZM25.1011 22.1894L25.118 16.0002L28.1807 14.1884V24.0161L19.844 28.9056V25.2821L25.1011 22.1894Z" fill="#E8C54A"/>
<path d="M22.905 20.9067L19.8423 22.7016V19.0949L22.905 17.2832V20.9067Z" fill="#E8C54A"/>
<path d="M22.9049 11.0937L22.9218 14.7171L17.6478 17.8117V24.0159L14.5851 25.8108L11.5224 24.0159V17.8117L6.24846 14.7171V11.0937L9.3243 9.28191L14.5664 12.3915L19.8403 9.28191L22.918 11.0937H22.9049ZM6.24658 4.90634L14.5682 0L22.9049 4.90634L19.8422 6.71808L14.5682 3.60849L9.30929 6.71808L6.24658 4.90634Z" fill="#E8C54A"/>
</svg>
