<svg width="28" height="32" viewBox="0 0 28 32" fill="none" xmlns="http://www.w3.org/2000/svg">
<path d="M3.21408 16.0002L3.23096 22.1894L8.4899 25.284V28.9075L0.153243 24.018V14.1903L3.21408 16.0002ZM3.21408 9.81099V13.4176L0.151367 11.6059V7.99925L3.21408 6.1875L6.2918 7.99925L3.21408 9.81099ZM10.6861 7.99925L13.7488 6.1875L16.8265 7.99925L13.7488 9.81099L10.6861 7.99925Z" fill="#E8C54A"/>
<path d="M5.42676 20.9065V17.283L8.48947 19.0948V22.7014L5.42676 20.9065ZM10.6857 26.5818L13.7484 28.3936L16.8261 26.5818V30.1884L13.7484 32.0002L10.6857 30.1884V26.5818ZM21.2186 7.99925L24.2813 6.1875L27.359 7.99925V11.6059L24.2813 13.4176V9.81099L21.2186 7.99925ZM24.2813 22.1894L24.2982 16.0002L27.3609 14.1884V24.0161L19.0242 28.9056V25.2821L24.2813 22.1894Z" fill="#E8C54A"/>
<path d="M22.0852 20.9067L19.0225 22.7016V19.0949L22.0852 17.2832V20.9067Z" fill="#E8C54A"/>
<path d="M22.0851 11.0937L22.1019 14.7171L16.828 17.8117V24.0159L13.7653 25.8108L10.7026 24.0159V17.8117L5.42863 14.7171V11.0937L8.50447 9.28191L13.7465 12.3915L19.0205 9.28191L22.0982 11.0937H22.0851ZM5.42676 4.90634L13.7484 0L22.0851 4.90634L19.0223 6.71808L13.7484 3.60849L8.48947 6.71808L5.42676 4.90634Z" fill="#E8C54A"/>
</svg>
