<svg width="28" height="32" viewBox="0 0 28 32" fill="none" xmlns="http://www.w3.org/2000/svg">
<path d="M3.21449 16.0001L3.23137 22.1893L8.49031 25.2838V28.9073L0.153655 24.0179V14.1902L3.21449 16.0001ZM3.21449 9.81087V13.4175L0.151779 11.6057V7.99912L3.21449 6.18738L6.29221 7.99912L3.21449 9.81087ZM10.6865 7.99912L13.7492 6.18738L16.827 7.99912L13.7492 9.81087L10.6865 7.99912Z" fill="white"/>
<path d="M5.42764 20.9064V17.2829L8.49035 19.0947V22.7013L5.42764 20.9064ZM10.6866 26.5817L13.7493 28.3934L16.827 26.5817V30.1883L13.7493 32.0001L10.6866 30.1883V26.5817ZM21.2195 7.99912L24.2822 6.18738L27.3599 7.99912V11.6057L24.2822 13.4175V9.81087L21.2195 7.99912ZM24.2822 22.1892L24.299 16.0001L27.3618 14.1883V24.016L19.0251 28.9055V25.282L24.2822 22.1892Z" fill="white"/>
<path d="M22.0859 20.9063L19.0232 22.7012V19.0946L22.0859 17.2828V20.9063Z" fill="white"/>
<path d="M22.0859 11.0937L22.1028 14.7171L16.8289 17.8117V24.0159L13.7662 25.8108L10.7035 24.0159V17.8117L5.42952 14.7171V11.0937L8.50536 9.28191L13.7474 12.3915L19.0214 9.28191L22.0991 11.0937H22.0859ZM5.42764 4.90634L13.7493 0L22.0859 4.90634L19.0232 6.71808L13.7493 3.60849L8.49035 6.71808L5.42764 4.90634Z" fill="white"/>
</svg>
