<svg width="29" height="32" viewBox="0 0 29 32" fill="none" xmlns="http://www.w3.org/2000/svg">
<path d="M4.03342 16.0002L4.05029 22.1894L9.30923 25.284V28.9075L0.972579 24.018V14.1903L4.03342 16.0002ZM4.03342 9.81099V13.4176L0.970703 11.6059V7.99925L4.03342 6.1875L7.11113 7.99925L4.03342 9.81099ZM11.5055 7.99925L14.5682 6.1875L17.6459 7.99925L14.5682 9.81099L11.5055 7.99925Z" fill="#E8C54A"/>
<path d="M6.24609 20.9065V17.283L9.30881 19.0948V22.7014L6.24609 20.9065ZM11.505 26.5818L14.5677 28.3936L17.6455 26.5818V30.1884L14.5677 32.0002L11.505 30.1884V26.5818ZM22.0379 7.99925L25.1006 6.1875L28.1783 7.99925V11.6059L25.1006 13.4176V9.81099L22.0379 7.99925ZM25.1006 22.1894L25.1175 16.0002L28.1802 14.1884V24.0161L19.8436 28.9056V25.2821L25.1006 22.1894Z" fill="#E8C54A"/>
<path d="M22.9045 20.9067L19.8418 22.7016V19.0949L22.9045 17.2832V20.9067Z" fill="#E8C54A"/>
<path d="M22.9044 11.0937L22.9213 14.7171L17.6473 17.8117V24.0159L14.5846 25.8108L11.5219 24.0159V17.8117L6.24797 14.7171V11.0937L9.32381 9.28191L14.5659 12.3915L19.8398 9.28191L22.9175 11.0937H22.9044ZM6.24609 4.90634L14.5677 0L22.9044 4.90634L19.8417 6.71808L14.5677 3.60849L9.30881 6.71808L6.24609 4.90634Z" fill="#E8C54A"/>
</svg>
