<svg width="33" height="32" viewBox="0 0 33 32" fill="none" xmlns="http://www.w3.org/2000/svg">
<rect width="32" height="32" transform="translate(0.5)" fill="url(#paint0_linear_6623_1074)" fill-opacity="0.2"/>
<path d="M26 30H12C10.8065 30 9.66193 29.5259 8.81802 28.682C7.97411 27.8381 7.5 26.6935 7.5 25.5V11.5C7.5 10.3065 7.97411 9.16193 8.81802 8.31802C9.66193 7.47411 10.8065 7 12 7H26C27.1935 7 28.3381 7.47411 29.182 8.31802C30.0259 9.16193 30.5 10.3065 30.5 11.5V25.5C30.5 26.6935 30.0259 27.8381 29.182 28.682C28.3381 29.5259 27.1935 30 26 30Z" fill="#B59AF6"/>
<path d="M10.5 5H25.2425C24.9314 4.12328 24.3566 3.3643 23.597 2.82718C22.8374 2.29006 21.9303 2.00112 21 2H7C5.80653 2 4.66193 2.47411 3.81802 3.31802C2.97411 4.16193 2.5 5.30653 2.5 6.5V20.5C2.50112 21.4303 2.79006 22.3374 3.32718 23.097C3.8643 23.8566 4.62328 24.4314 5.5 24.7425V10C5.5 8.67392 6.02678 7.40215 6.96447 6.46447C7.90215 5.52678 9.17392 5 10.5 5Z" fill="#B59AF6"/>
<defs>
<linearGradient id="paint0_linear_6623_1074" x1="16" y1="0" x2="16" y2="32" gradientUnits="userSpaceOnUse">
<stop stop-opacity="0"/>
<stop offset="1"/>
</linearGradient>
</defs>
</svg>
