<svg width="32" height="33" viewBox="0 0 32 33" fill="none" xmlns="http://www.w3.org/2000/svg">
<rect width="32" height="32" transform="translate(0 0.5)" fill="url(#paint0_linear_6551_808)" fill-opacity="0.2"/>
<path d="M25.5 30.5H11.5C10.3065 30.5 9.16193 30.0259 8.31802 29.182C7.47411 28.3381 7 27.1935 7 26V12C7 10.8065 7.47411 9.66193 8.31802 8.81802C9.16193 7.97411 10.3065 7.5 11.5 7.5H25.5C26.6935 7.5 27.8381 7.97411 28.682 8.81802C29.5259 9.66193 30 10.8065 30 12V26C30 27.1935 29.5259 28.3381 28.682 29.182C27.8381 30.0259 26.6935 30.5 25.5 30.5Z" fill="#B59AF6"/>
<path d="M10 5.5H24.7425C24.4314 4.62328 23.8566 3.8643 23.097 3.32718C22.3374 2.79006 21.4303 2.50112 20.5 2.5H6.5C5.30653 2.5 4.16193 2.97411 3.31802 3.81802C2.47411 4.66193 2 5.80653 2 7V21C2.00112 21.9303 2.29006 22.8374 2.82718 23.597C3.3643 24.3566 4.12328 24.9314 5 25.2425V10.5C5 9.17392 5.52678 7.90215 6.46447 6.96447C7.40215 6.02678 8.67392 5.5 10 5.5Z" fill="#B59AF6"/>
<defs>
<linearGradient id="paint0_linear_6551_808" x1="16" y1="0" x2="16" y2="32" gradientUnits="userSpaceOnUse">
<stop stop-opacity="0"/>
<stop offset="1"/>
</linearGradient>
</defs>
</svg>
