<svg width="30" height="32" viewBox="0 0 30 32" fill="none" xmlns="http://www.w3.org/2000/svg">
<path d="M15.1582 20.6476L19.5722 27.5755L23.6498 25.2124L17.8527 16.0752L15.1582 20.6476Z" fill="#5682F4"/>
<path d="M27.3631 22.4342L27.3601 20.5407L21.0258 10.6748L18.6758 14.6625L24.7907 24.552L27.0016 23.2709C27.2185 23.0947 27.3497 22.8362 27.3635 22.5574L27.3631 22.4342Z" fill="#5682F4"/>
<path d="M0.818359 24.2194L3.94053 26.0185L14.3304 9.35594L12.5671 9.30941C11.0647 9.28818 9.44619 9.67878 8.70337 10.8914L2.80329 20.0363L0.818359 23.0861V24.2194Z" fill="#5682F4"/>
<path d="M20.3278 9.35645L15.6804 9.37332L5.16602 26.724L8.84112 28.84L9.84054 27.145L20.3278 9.35645Z" fill="#5682F4"/>
<path d="M29.3207 9.33205C29.2818 8.36012 28.7555 7.47038 27.9313 6.95238L16.3776 0.308154C15.5622 -0.10241 14.5436 -0.102937 13.7268 0.30789C13.6302 0.356599 2.49113 6.8168 2.49113 6.8168C2.33696 6.89075 2.18847 6.97881 2.0488 7.0788C1.31296 7.60616 0.864432 8.4257 0.818359 9.32606V23.0861L2.80329 20.0363L2.78595 9.41906C2.78826 9.38024 2.79314 9.34201 2.80006 9.3043C2.84495 9.0545 2.98441 8.83165 3.19441 8.68104C3.24681 8.64354 14.5762 2.08566 14.6122 2.06767C14.8784 1.93393 15.2169 1.93235 15.4835 2.06351L26.8877 8.62324C27.1574 8.79507 27.3266 9.0864 27.3416 9.40489V22.557C27.3278 22.8359 27.2176 23.0943 27.0007 23.2705L24.7898 24.5517L23.649 25.2129L19.5714 27.5759L15.4363 29.9723C15.2136 30.0528 14.9532 30.0482 14.7323 29.9584L9.83982 27.1445L8.8404 28.8395L13.2371 31.3709C13.3825 31.4537 13.512 31.527 13.6183 31.5866C13.7829 31.6789 13.8951 31.7406 13.9347 31.7599C14.2472 31.9117 14.6968 32 15.102 32C15.4735 32 15.8357 31.9318 16.1785 31.7975L28.1892 24.8418C28.8786 24.3076 29.2842 23.5021 29.3207 22.6295V9.33205Z" fill="#5682F4"/>
</svg>
