<svg width="30" height="32" viewBox="0 0 30 32" fill="none" xmlns="http://www.w3.org/2000/svg">
<path d="M15.1582 20.6485L19.5722 27.5764L23.6498 25.2134L17.8527 16.0762L15.1582 20.6485Z" fill="#5682F4"/>
<path d="M27.3631 22.4332L27.3601 20.5398L21.0258 10.6738L18.6758 14.6615L24.7907 24.5511L27.0016 23.2699C27.2185 23.0937 27.3497 22.8353 27.3635 22.5564L27.3631 22.4332Z" fill="#5682F4"/>
<path d="M0.819336 24.2194L3.9415 26.0185L14.3314 9.35594L12.5681 9.30941C11.0656 9.28818 9.44717 9.67878 8.70435 10.8914L2.80427 20.0363L0.819336 23.0861V24.2194Z" fill="#5682F4"/>
<path d="M20.3283 9.35547L15.6809 9.37234L5.1665 26.7231L8.84161 28.839L9.84102 27.144L20.3283 9.35547Z" fill="#5682F4"/>
<path d="M29.3216 9.33205C29.2828 8.36012 28.7565 7.47038 27.9322 6.95238L16.3786 0.308154C15.5632 -0.10241 14.5446 -0.102937 13.7277 0.30789C13.6312 0.356599 2.49211 6.8168 2.49211 6.8168C2.33794 6.89075 2.18944 6.97881 2.04977 7.0788C1.31394 7.60616 0.865408 8.4257 0.819336 9.32606V23.0861L2.80427 20.0363L2.78693 9.41906C2.78924 9.38024 2.79412 9.34201 2.80104 9.3043C2.84592 9.0545 2.98539 8.83165 3.19539 8.68104C3.24778 8.64354 14.5771 2.08566 14.6131 2.06767C14.8794 1.93393 15.2179 1.93235 15.4845 2.06351L26.8886 8.62324C27.1584 8.79507 27.3276 9.0864 27.3426 9.40489V22.557C27.3288 22.8359 27.2185 23.0943 27.0017 23.2705L24.7907 24.5517L23.6499 25.2129L19.5724 27.5759L15.4373 29.9723C15.2146 30.0528 14.9542 30.0482 14.7333 29.9584L9.8408 27.1445L8.84138 28.8395L13.2381 31.3709C13.3835 31.4537 13.513 31.527 13.6193 31.5866C13.7839 31.6789 13.8961 31.7406 13.9357 31.7599C14.2482 31.9117 14.6978 32 15.103 32C15.4745 32 15.8367 31.9318 16.1795 31.7975L28.1902 24.8418C28.8796 24.3076 29.2851 23.5021 29.3216 22.6295V9.33205Z" fill="#5682F4"/>
</svg>
