<svg width="29" height="32" viewBox="0 0 29 32" fill="none" xmlns="http://www.w3.org/2000/svg">
<path d="M14.3391 20.648L18.7531 27.5759L22.8307 25.2129L17.0336 16.0757L14.3391 20.648Z" fill="white"/>
<path d="M26.5439 22.4338L26.5408 20.5404L20.2065 10.6744L17.8565 14.6621L23.9714 24.5517L26.1824 23.2705C26.3992 23.0943 26.5304 22.8359 26.5442 22.557L26.5439 22.4338Z" fill="white"/>
<path d="M7.62939e-05 24.2194L3.12225 26.0185L13.5122 9.35594L11.7488 9.30941C10.2464 9.28818 8.62791 9.67878 7.88509 10.8914L1.98501 20.0363L7.62939e-05 23.0861V24.2194Z" fill="white"/>
<path d="M19.5088 9.35596L14.8614 9.37283L4.34701 26.7236L8.02211 28.8395L9.02153 27.1445L19.5088 9.35596Z" fill="white"/>
<path d="M28.5023 9.33205C28.4634 8.36012 27.9372 7.47038 27.1129 6.95238L15.5592 0.308154C14.7438 -0.10241 13.7252 -0.102937 12.9084 0.30789C12.8118 0.356599 1.67277 6.8168 1.67277 6.8168C1.5186 6.89075 1.37011 6.97881 1.23044 7.0788C0.494601 7.60616 0.0460722 8.4257 0 9.32606V23.0861L1.98493 20.0363L1.96759 9.41906C1.9699 9.38024 1.97478 9.34201 1.9817 9.3043C2.02659 9.0545 2.16605 8.83165 2.37605 8.68104C2.42845 8.64354 13.7578 2.08566 13.7938 2.06767C14.0601 1.93393 14.3985 1.93235 14.6651 2.06351L26.0693 8.62324C26.3391 8.79507 26.5082 9.0864 26.5232 9.40489V22.557C26.5095 22.8359 26.3992 23.0943 26.1824 23.2705L23.9714 24.5517L22.8306 25.2129L18.7531 27.5759L14.618 29.9723C14.3952 30.0528 14.1348 30.0482 13.9139 29.9584L9.02146 27.1445L8.02204 28.8395L12.4187 31.3709C12.5641 31.4537 12.6937 31.527 12.8 31.5866C12.9646 31.6789 13.0767 31.7406 13.1164 31.7599C13.4288 31.9117 13.8785 32 14.2836 32C14.6551 32 15.0174 31.9318 15.3601 31.7975L27.3709 24.8418C28.0602 24.3076 28.4658 23.5021 28.5023 22.6295V9.33205Z" fill="white"/>
</svg>
