<svg width="272" height="97" viewBox="0 0 272 97" fill="none" xmlns="http://www.w3.org/2000/svg">
<path d="M29.7845 39.28C39.7045 39.44 44.6645 44.72 44.6645 55.12V70.72C44.6645 81.28 39.7045 86.56 29.7845 86.56H24.8645V97H20.4245V86.56H15.6245C5.70454 86.56 0.744537 81.28 0.744537 70.72V62.68H14.9045V72.76C14.9045 73.4 15.1045 73.96 15.5045 74.44C15.9845 74.92 16.5445 75.16 17.1845 75.16H20.4245V52.72H15.6245C5.70454 52.72 0.744537 47.44 0.744537 36.88V22.36C0.744537 11.8 5.70454 6.52 15.6245 6.52H20.4245V0.279999H24.8645V6.52H28.9445C38.8645 6.52 43.8245 11.8 43.8245 22.36V28.12H29.6645V20.44C29.6645 19.8 29.4245 19.24 28.9445 18.76C28.5445 18.28 28.0245 18.04 27.3845 18.04H24.8645V39.28H29.7845ZM17.3045 39.28H20.4245V18.04H17.3045C16.6645 18.04 16.1045 18.28 15.6245 18.76C15.2245 19.24 15.0245 19.8 15.0245 20.44V36.88C15.0245 37.52 15.2245 38.08 15.6245 38.56C16.1045 39.04 16.6645 39.28 17.3045 39.28ZM30.5045 72.76V55.12C30.5045 54.48 30.2645 53.92 29.7845 53.44C29.3845 52.96 28.8645 52.72 28.2245 52.72H24.8645V75.16H28.2245C28.8645 75.16 29.3845 74.92 29.7845 74.44C30.2645 73.96 30.5045 73.4 30.5045 72.76Z" fill="white"/>
<path d="M29.7845 39.28C39.7045 39.44 44.6645 44.72 44.6645 55.12V70.72C44.6645 81.28 39.7045 86.56 29.7845 86.56H24.8645V97H20.4245V86.56H15.6245C5.70454 86.56 0.744537 81.28 0.744537 70.72V62.68H14.9045V72.76C14.9045 73.4 15.1045 73.96 15.5045 74.44C15.9845 74.92 16.5445 75.16 17.1845 75.16H20.4245V52.72H15.6245C5.70454 52.72 0.744537 47.44 0.744537 36.88V22.36C0.744537 11.8 5.70454 6.52 15.6245 6.52H20.4245V0.279999H24.8645V6.52H28.9445C38.8645 6.52 43.8245 11.8 43.8245 22.36V28.12H29.6645V20.44C29.6645 19.8 29.4245 19.24 28.9445 18.76C28.5445 18.28 28.0245 18.04 27.3845 18.04H24.8645V39.28H29.7845ZM17.3045 39.28H20.4245V18.04H17.3045C16.6645 18.04 16.1045 18.28 15.6245 18.76C15.2245 19.24 15.0245 19.8 15.0245 20.44V36.88C15.0245 37.52 15.2245 38.08 15.6245 38.56C16.1045 39.04 16.6645 39.28 17.3045 39.28ZM30.5045 72.76V55.12C30.5045 54.48 30.2645 53.92 29.7845 53.44C29.3845 52.96 28.8645 52.72 28.2245 52.72H24.8645V75.16H28.2245C28.8645 75.16 29.3845 74.92 29.7845 74.44C30.2645 73.96 30.5045 73.4 30.5045 72.76Z" fill="url(#paint0_linear_6440_295)" fill-opacity="0.2"/>
<path d="M102.363 22.36V70.72C102.363 81.28 97.403 86.56 87.483 86.56H71.523C61.603 86.56 56.643 81.28 56.643 70.72V22.36C56.643 11.8 61.603 6.52 71.523 6.52H87.483C97.403 6.52 102.363 11.8 102.363 22.36ZM85.563 72.64V20.32C85.563 19.68 85.323 19.12 84.843 18.64C84.443 18.16 83.923 17.92 83.283 17.92H75.723C75.083 17.92 74.523 18.16 74.043 18.64C73.643 19.12 73.443 19.68 73.443 20.32V72.64C73.443 73.28 73.643 73.84 74.043 74.32C74.523 74.8 75.083 75.04 75.723 75.04H83.283C83.923 75.04 84.443 74.8 84.843 74.32C85.323 73.84 85.563 73.28 85.563 72.64Z" fill="white"/>
<path d="M102.363 22.36V70.72C102.363 81.28 97.403 86.56 87.483 86.56H71.523C61.603 86.56 56.643 81.28 56.643 70.72V22.36C56.643 11.8 61.603 6.52 71.523 6.52H87.483C97.403 6.52 102.363 11.8 102.363 22.36ZM85.563 72.64V20.32C85.563 19.68 85.323 19.12 84.843 18.64C84.443 18.16 83.923 17.92 83.283 17.92H75.723C75.083 17.92 74.523 18.16 74.043 18.64C73.643 19.12 73.443 19.68 73.443 20.32V72.64C73.443 73.28 73.643 73.84 74.043 74.32C74.523 74.8 75.083 75.04 75.723 75.04H83.283C83.923 75.04 84.443 74.8 84.843 74.32C85.323 73.84 85.563 73.28 85.563 72.64Z" fill="url(#paint1_linear_6440_295)" fill-opacity="0.2"/>
<path d="M131.448 85.36H114.648V22.36C114.648 11.8 119.608 6.52 129.528 6.52H138.408C144.248 6.52 148.408 8.44 150.888 12.28C153.208 8.44 157.368 6.52 163.368 6.52H172.248C182.168 6.52 187.128 11.8 187.128 22.36V85.36H170.328V20.92C170.328 20.28 170.088 19.72 169.608 19.24C169.208 18.76 168.688 18.52 168.048 18.52H161.568C160.928 18.52 160.368 18.76 159.888 19.24C159.488 19.72 159.288 20.28 159.288 20.92V85.36H142.488V20.92C142.488 20.28 142.248 19.72 141.768 19.24C141.368 18.76 140.848 18.52 140.208 18.52H133.728C133.088 18.52 132.528 18.76 132.048 19.24C131.648 19.72 131.448 20.28 131.448 20.92V85.36Z" fill="white"/>
<path d="M131.448 85.36H114.648V22.36C114.648 11.8 119.608 6.52 129.528 6.52H138.408C144.248 6.52 148.408 8.44 150.888 12.28C153.208 8.44 157.368 6.52 163.368 6.52H172.248C182.168 6.52 187.128 11.8 187.128 22.36V85.36H170.328V20.92C170.328 20.28 170.088 19.72 169.608 19.24C169.208 18.76 168.688 18.52 168.048 18.52H161.568C160.928 18.52 160.368 18.76 159.888 19.24C159.488 19.72 159.288 20.28 159.288 20.92V85.36H142.488V20.92C142.488 20.28 142.248 19.72 141.768 19.24C141.368 18.76 140.848 18.52 140.208 18.52H133.728C133.088 18.52 132.528 18.76 132.048 19.24C131.648 19.72 131.448 20.28 131.448 20.92V85.36Z" fill="url(#paint2_linear_6440_295)" fill-opacity="0.2"/>
<path d="M243.194 85.36H226.394V20.92C226.394 20.28 226.154 19.72 225.674 19.24C225.274 18.76 224.754 18.52 224.114 18.52H217.634C216.994 18.52 216.434 18.76 215.954 19.24C215.554 19.72 215.354 20.28 215.354 20.92V85.36H198.554V22.36C198.554 11.8 203.514 6.52 213.434 6.52H228.314C238.234 6.52 243.194 11.8 243.194 22.36V85.36Z" fill="white"/>
<path d="M243.194 85.36H226.394V20.92C226.394 20.28 226.154 19.72 225.674 19.24C225.274 18.76 224.754 18.52 224.114 18.52H217.634C216.994 18.52 216.434 18.76 215.954 19.24C215.554 19.72 215.354 20.28 215.354 20.92V85.36H198.554V22.36C198.554 11.8 203.514 6.52 213.434 6.52H228.314C238.234 6.52 243.194 11.8 243.194 22.36V85.36Z" fill="url(#paint3_linear_6440_295)" fill-opacity="0.2"/>
<path d="M271.255 7.72V85.36H254.455V7.72H271.255Z" fill="white"/>
<path d="M271.255 7.72V85.36H254.455V7.72H271.255Z" fill="url(#paint4_linear_6440_295)" fill-opacity="0.2"/>
<defs>
<linearGradient id="paint0_linear_6440_295" x1="136" y1="0.279999" x2="136" y2="97" gradientUnits="userSpaceOnUse">
<stop stop-opacity="0"/>
<stop offset="1"/>
</linearGradient>
<linearGradient id="paint1_linear_6440_295" x1="136" y1="0.279999" x2="136" y2="97" gradientUnits="userSpaceOnUse">
<stop stop-opacity="0"/>
<stop offset="1"/>
</linearGradient>
<linearGradient id="paint2_linear_6440_295" x1="136" y1="0.279999" x2="136" y2="97" gradientUnits="userSpaceOnUse">
<stop stop-opacity="0"/>
<stop offset="1"/>
</linearGradient>
<linearGradient id="paint3_linear_6440_295" x1="136" y1="0.279999" x2="136" y2="97" gradientUnits="userSpaceOnUse">
<stop stop-opacity="0"/>
<stop offset="1"/>
</linearGradient>
<linearGradient id="paint4_linear_6440_295" x1="136" y1="0.279999" x2="136" y2="97" gradientUnits="userSpaceOnUse">
<stop stop-opacity="0"/>
<stop offset="1"/>
</linearGradient>
</defs>
</svg>
