<svg width="271" height="97" viewBox="0 0 271 97" fill="none" xmlns="http://www.w3.org/2000/svg">
<path d="M29.04 39.2803C38.96 39.4403 43.92 44.7203 43.92 55.1203V70.7203C43.92 81.2803 38.96 86.5603 29.04 86.5603H24.12V97.0003H19.68V86.5603H14.88C4.96 86.5603 0 81.2803 0 70.7203V62.6803H14.16V72.7603C14.16 73.4003 14.36 73.9603 14.76 74.4403C15.24 74.9203 15.8 75.1603 16.44 75.1603H19.68V52.7203H14.88C4.96 52.7203 0 47.4403 0 36.8803V22.3603C0 11.8003 4.96 6.52028 14.88 6.52028H19.68V0.280273H24.12V6.52028H28.2C38.12 6.52028 43.08 11.8003 43.08 22.3603V28.1203H28.92V20.4403C28.92 19.8003 28.68 19.2403 28.2 18.7603C27.8 18.2803 27.28 18.0403 26.64 18.0403H24.12V39.2803H29.04ZM16.56 39.2803H19.68V18.0403H16.56C15.92 18.0403 15.36 18.2803 14.88 18.7603C14.48 19.2403 14.28 19.8003 14.28 20.4403V36.8803C14.28 37.5203 14.48 38.0803 14.88 38.5603C15.36 39.0403 15.92 39.2803 16.56 39.2803ZM29.76 72.7603V55.1203C29.76 54.4803 29.52 53.9203 29.04 53.4403C28.64 52.9603 28.12 52.7203 27.48 52.7203H24.12V75.1603H27.48C28.12 75.1603 28.64 74.9203 29.04 74.4403C29.52 73.9603 29.76 73.4003 29.76 72.7603Z" fill="white"/>
<path d="M29.04 39.2803C38.96 39.4403 43.92 44.7203 43.92 55.1203V70.7203C43.92 81.2803 38.96 86.5603 29.04 86.5603H24.12V97.0003H19.68V86.5603H14.88C4.96 86.5603 0 81.2803 0 70.7203V62.6803H14.16V72.7603C14.16 73.4003 14.36 73.9603 14.76 74.4403C15.24 74.9203 15.8 75.1603 16.44 75.1603H19.68V52.7203H14.88C4.96 52.7203 0 47.4403 0 36.8803V22.3603C0 11.8003 4.96 6.52028 14.88 6.52028H19.68V0.280273H24.12V6.52028H28.2C38.12 6.52028 43.08 11.8003 43.08 22.3603V28.1203H28.92V20.4403C28.92 19.8003 28.68 19.2403 28.2 18.7603C27.8 18.2803 27.28 18.0403 26.64 18.0403H24.12V39.2803H29.04ZM16.56 39.2803H19.68V18.0403H16.56C15.92 18.0403 15.36 18.2803 14.88 18.7603C14.48 19.2403 14.28 19.8003 14.28 20.4403V36.8803C14.28 37.5203 14.48 38.0803 14.88 38.5603C15.36 39.0403 15.92 39.2803 16.56 39.2803ZM29.76 72.7603V55.1203C29.76 54.4803 29.52 53.9203 29.04 53.4403C28.64 52.9603 28.12 52.7203 27.48 52.7203H24.12V75.1603H27.48C28.12 75.1603 28.64 74.9203 29.04 74.4403C29.52 73.9603 29.76 73.4003 29.76 72.7603Z" fill="url(#paint0_linear_6551_673)" fill-opacity="0.2"/>
<path d="M101.618 22.3603V70.7203C101.618 81.2803 96.6584 86.5603 86.7384 86.5603H70.7784C60.8584 86.5603 55.8984 81.2803 55.8984 70.7203V22.3603C55.8984 11.8003 60.8584 6.52028 70.7784 6.52028H86.7384C96.6584 6.52028 101.618 11.8003 101.618 22.3603ZM84.8184 72.6403V20.3203C84.8184 19.6803 84.5784 19.1203 84.0984 18.6403C83.6984 18.1603 83.1784 17.9203 82.5384 17.9203H74.9784C74.3384 17.9203 73.7784 18.1603 73.2984 18.6403C72.8984 19.1203 72.6984 19.6803 72.6984 20.3203V72.6403C72.6984 73.2803 72.8984 73.8403 73.2984 74.3203C73.7784 74.8003 74.3384 75.0403 74.9784 75.0403H82.5384C83.1784 75.0403 83.6984 74.8003 84.0984 74.3203C84.5784 73.8403 84.8184 73.2803 84.8184 72.6403Z" fill="white"/>
<path d="M101.618 22.3603V70.7203C101.618 81.2803 96.6584 86.5603 86.7384 86.5603H70.7784C60.8584 86.5603 55.8984 81.2803 55.8984 70.7203V22.3603C55.8984 11.8003 60.8584 6.52028 70.7784 6.52028H86.7384C96.6584 6.52028 101.618 11.8003 101.618 22.3603ZM84.8184 72.6403V20.3203C84.8184 19.6803 84.5784 19.1203 84.0984 18.6403C83.6984 18.1603 83.1784 17.9203 82.5384 17.9203H74.9784C74.3384 17.9203 73.7784 18.1603 73.2984 18.6403C72.8984 19.1203 72.6984 19.6803 72.6984 20.3203V72.6403C72.6984 73.2803 72.8984 73.8403 73.2984 74.3203C73.7784 74.8003 74.3384 75.0403 74.9784 75.0403H82.5384C83.1784 75.0403 83.6984 74.8003 84.0984 74.3203C84.5784 73.8403 84.8184 73.2803 84.8184 72.6403Z" fill="url(#paint1_linear_6551_673)" fill-opacity="0.2"/>
<path d="M130.703 85.3603H113.903V22.3603C113.903 11.8003 118.863 6.52028 128.783 6.52028H137.663C143.503 6.52028 147.663 8.44028 150.143 12.2803C152.463 8.44028 156.623 6.52028 162.623 6.52028H171.503C181.423 6.52028 186.383 11.8003 186.383 22.3603V85.3603H169.583V20.9203C169.583 20.2803 169.343 19.7203 168.863 19.2403C168.463 18.7603 167.943 18.5203 167.303 18.5203H160.823C160.183 18.5203 159.623 18.7603 159.143 19.2403C158.743 19.7203 158.543 20.2803 158.543 20.9203V85.3603H141.743V20.9203C141.743 20.2803 141.503 19.7203 141.023 19.2403C140.623 18.7603 140.103 18.5203 139.463 18.5203H132.983C132.343 18.5203 131.783 18.7603 131.303 19.2403C130.903 19.7203 130.703 20.2803 130.703 20.9203V85.3603Z" fill="white"/>
<path d="M130.703 85.3603H113.903V22.3603C113.903 11.8003 118.863 6.52028 128.783 6.52028H137.663C143.503 6.52028 147.663 8.44028 150.143 12.2803C152.463 8.44028 156.623 6.52028 162.623 6.52028H171.503C181.423 6.52028 186.383 11.8003 186.383 22.3603V85.3603H169.583V20.9203C169.583 20.2803 169.343 19.7203 168.863 19.2403C168.463 18.7603 167.943 18.5203 167.303 18.5203H160.823C160.183 18.5203 159.623 18.7603 159.143 19.2403C158.743 19.7203 158.543 20.2803 158.543 20.9203V85.3603H141.743V20.9203C141.743 20.2803 141.503 19.7203 141.023 19.2403C140.623 18.7603 140.103 18.5203 139.463 18.5203H132.983C132.343 18.5203 131.783 18.7603 131.303 19.2403C130.903 19.7203 130.703 20.2803 130.703 20.9203V85.3603Z" fill="url(#paint2_linear_6551_673)" fill-opacity="0.2"/>
<path d="M242.45 85.3603H225.65V20.9203C225.65 20.2803 225.41 19.7203 224.93 19.2403C224.53 18.7603 224.01 18.5203 223.37 18.5203H216.89C216.25 18.5203 215.69 18.7603 215.21 19.2403C214.81 19.7203 214.61 20.2803 214.61 20.9203V85.3603H197.81V22.3603C197.81 11.8003 202.77 6.52028 212.69 6.52028H227.57C237.49 6.52028 242.45 11.8003 242.45 22.3603V85.3603Z" fill="white"/>
<path d="M242.45 85.3603H225.65V20.9203C225.65 20.2803 225.41 19.7203 224.93 19.2403C224.53 18.7603 224.01 18.5203 223.37 18.5203H216.89C216.25 18.5203 215.69 18.7603 215.21 19.2403C214.81 19.7203 214.61 20.2803 214.61 20.9203V85.3603H197.81V22.3603C197.81 11.8003 202.77 6.52028 212.69 6.52028H227.57C237.49 6.52028 242.45 11.8003 242.45 22.3603V85.3603Z" fill="url(#paint3_linear_6551_673)" fill-opacity="0.2"/>
<path d="M270.511 7.72028V85.3603H253.711V7.72028H270.511Z" fill="white"/>
<path d="M270.511 7.72028V85.3603H253.711V7.72028H270.511Z" fill="url(#paint4_linear_6551_673)" fill-opacity="0.2"/>
<defs>
<linearGradient id="paint0_linear_6551_673" x1="135.255" y1="0.280273" x2="135.255" y2="97.0003" gradientUnits="userSpaceOnUse">
<stop stop-opacity="0"/>
<stop offset="1"/>
</linearGradient>
<linearGradient id="paint1_linear_6551_673" x1="135.255" y1="0.280273" x2="135.255" y2="97.0003" gradientUnits="userSpaceOnUse">
<stop stop-opacity="0"/>
<stop offset="1"/>
</linearGradient>
<linearGradient id="paint2_linear_6551_673" x1="135.255" y1="0.280273" x2="135.255" y2="97.0003" gradientUnits="userSpaceOnUse">
<stop stop-opacity="0"/>
<stop offset="1"/>
</linearGradient>
<linearGradient id="paint3_linear_6551_673" x1="135.255" y1="0.280273" x2="135.255" y2="97.0003" gradientUnits="userSpaceOnUse">
<stop stop-opacity="0"/>
<stop offset="1"/>
</linearGradient>
<linearGradient id="paint4_linear_6551_673" x1="135.255" y1="0.280273" x2="135.255" y2="97.0003" gradientUnits="userSpaceOnUse">
<stop stop-opacity="0"/>
<stop offset="1"/>
</linearGradient>
</defs>
</svg>
