<svg width="271" height="97" viewBox="0 0 271 97" fill="none" xmlns="http://www.w3.org/2000/svg">
<path d="M29.04 39C38.96 39.16 43.92 44.44 43.92 54.84V70.44C43.92 81 38.96 86.28 29.04 86.28H24.12V96.72H19.68V86.28H14.88C4.96 86.28 0 81 0 70.44V62.4H14.16V72.48C14.16 73.12 14.36 73.68 14.76 74.16C15.24 74.64 15.8 74.88 16.44 74.88H19.68V52.44H14.88C4.96 52.44 0 47.16 0 36.6V22.08C0 11.52 4.96 6.24001 14.88 6.24001H19.68V0H24.12V6.24001H28.2C38.12 6.24001 43.08 11.52 43.08 22.08V27.84H28.92V20.16C28.92 19.52 28.68 18.96 28.2 18.48C27.8 18 27.28 17.76 26.64 17.76H24.12V39H29.04ZM16.56 39H19.68V17.76H16.56C15.92 17.76 15.36 18 14.88 18.48C14.48 18.96 14.28 19.52 14.28 20.16V36.6C14.28 37.24 14.48 37.8 14.88 38.28C15.36 38.76 15.92 39 16.56 39ZM29.76 72.48V54.84C29.76 54.2 29.52 53.64 29.04 53.16C28.64 52.68 28.12 52.44 27.48 52.44H24.12V74.88H27.48C28.12 74.88 28.64 74.64 29.04 74.16C29.52 73.68 29.76 73.12 29.76 72.48Z" fill="white"/>
<path d="M29.04 39C38.96 39.16 43.92 44.44 43.92 54.84V70.44C43.92 81 38.96 86.28 29.04 86.28H24.12V96.72H19.68V86.28H14.88C4.96 86.28 0 81 0 70.44V62.4H14.16V72.48C14.16 73.12 14.36 73.68 14.76 74.16C15.24 74.64 15.8 74.88 16.44 74.88H19.68V52.44H14.88C4.96 52.44 0 47.16 0 36.6V22.08C0 11.52 4.96 6.24001 14.88 6.24001H19.68V0H24.12V6.24001H28.2C38.12 6.24001 43.08 11.52 43.08 22.08V27.84H28.92V20.16C28.92 19.52 28.68 18.96 28.2 18.48C27.8 18 27.28 17.76 26.64 17.76H24.12V39H29.04ZM16.56 39H19.68V17.76H16.56C15.92 17.76 15.36 18 14.88 18.48C14.48 18.96 14.28 19.52 14.28 20.16V36.6C14.28 37.24 14.48 37.8 14.88 38.28C15.36 38.76 15.92 39 16.56 39ZM29.76 72.48V54.84C29.76 54.2 29.52 53.64 29.04 53.16C28.64 52.68 28.12 52.44 27.48 52.44H24.12V74.88H27.48C28.12 74.88 28.64 74.64 29.04 74.16C29.52 73.68 29.76 73.12 29.76 72.48Z" fill="url(#paint0_linear_6623_920)" fill-opacity="0.2"/>
<path d="M101.618 22.08V70.44C101.618 81 96.6584 86.28 86.7384 86.28H70.7784C60.8584 86.28 55.8984 81 55.8984 70.44V22.08C55.8984 11.52 60.8584 6.24001 70.7784 6.24001H86.7384C96.6584 6.24001 101.618 11.52 101.618 22.08ZM84.8184 72.36V20.04C84.8184 19.4 84.5784 18.84 84.0984 18.36C83.6984 17.88 83.1784 17.64 82.5384 17.64H74.9784C74.3384 17.64 73.7784 17.88 73.2984 18.36C72.8984 18.84 72.6984 19.4 72.6984 20.04V72.36C72.6984 73 72.8984 73.56 73.2984 74.04C73.7784 74.52 74.3384 74.76 74.9784 74.76H82.5384C83.1784 74.76 83.6984 74.52 84.0984 74.04C84.5784 73.56 84.8184 73 84.8184 72.36Z" fill="white"/>
<path d="M101.618 22.08V70.44C101.618 81 96.6584 86.28 86.7384 86.28H70.7784C60.8584 86.28 55.8984 81 55.8984 70.44V22.08C55.8984 11.52 60.8584 6.24001 70.7784 6.24001H86.7384C96.6584 6.24001 101.618 11.52 101.618 22.08ZM84.8184 72.36V20.04C84.8184 19.4 84.5784 18.84 84.0984 18.36C83.6984 17.88 83.1784 17.64 82.5384 17.64H74.9784C74.3384 17.64 73.7784 17.88 73.2984 18.36C72.8984 18.84 72.6984 19.4 72.6984 20.04V72.36C72.6984 73 72.8984 73.56 73.2984 74.04C73.7784 74.52 74.3384 74.76 74.9784 74.76H82.5384C83.1784 74.76 83.6984 74.52 84.0984 74.04C84.5784 73.56 84.8184 73 84.8184 72.36Z" fill="url(#paint1_linear_6623_920)" fill-opacity="0.2"/>
<path d="M130.703 85.08H113.903V22.08C113.903 11.52 118.863 6.24001 128.783 6.24001H137.663C143.503 6.24001 147.663 8.16 150.143 12C152.463 8.16 156.623 6.24001 162.623 6.24001H171.503C181.423 6.24001 186.383 11.52 186.383 22.08V85.08H169.583V20.64C169.583 20 169.343 19.44 168.863 18.96C168.463 18.48 167.943 18.24 167.303 18.24H160.823C160.183 18.24 159.623 18.48 159.143 18.96C158.743 19.44 158.543 20 158.543 20.64V85.08H141.743V20.64C141.743 20 141.503 19.44 141.023 18.96C140.623 18.48 140.103 18.24 139.463 18.24H132.983C132.343 18.24 131.783 18.48 131.303 18.96C130.903 19.44 130.703 20 130.703 20.64V85.08Z" fill="white"/>
<path d="M130.703 85.08H113.903V22.08C113.903 11.52 118.863 6.24001 128.783 6.24001H137.663C143.503 6.24001 147.663 8.16 150.143 12C152.463 8.16 156.623 6.24001 162.623 6.24001H171.503C181.423 6.24001 186.383 11.52 186.383 22.08V85.08H169.583V20.64C169.583 20 169.343 19.44 168.863 18.96C168.463 18.48 167.943 18.24 167.303 18.24H160.823C160.183 18.24 159.623 18.48 159.143 18.96C158.743 19.44 158.543 20 158.543 20.64V85.08H141.743V20.64C141.743 20 141.503 19.44 141.023 18.96C140.623 18.48 140.103 18.24 139.463 18.24H132.983C132.343 18.24 131.783 18.48 131.303 18.96C130.903 19.44 130.703 20 130.703 20.64V85.08Z" fill="url(#paint2_linear_6623_920)" fill-opacity="0.2"/>
<path d="M242.45 85.08H225.65V20.64C225.65 20 225.41 19.44 224.93 18.96C224.53 18.48 224.01 18.24 223.37 18.24H216.89C216.25 18.24 215.69 18.48 215.21 18.96C214.81 19.44 214.61 20 214.61 20.64V85.08H197.81V22.08C197.81 11.52 202.77 6.24001 212.69 6.24001H227.57C237.49 6.24001 242.45 11.52 242.45 22.08V85.08Z" fill="white"/>
<path d="M242.45 85.08H225.65V20.64C225.65 20 225.41 19.44 224.93 18.96C224.53 18.48 224.01 18.24 223.37 18.24H216.89C216.25 18.24 215.69 18.48 215.21 18.96C214.81 19.44 214.61 20 214.61 20.64V85.08H197.81V22.08C197.81 11.52 202.77 6.24001 212.69 6.24001H227.57C237.49 6.24001 242.45 11.52 242.45 22.08V85.08Z" fill="url(#paint3_linear_6623_920)" fill-opacity="0.2"/>
<path d="M270.511 7.44V85.08H253.711V7.44H270.511Z" fill="white"/>
<path d="M270.511 7.44V85.08H253.711V7.44H270.511Z" fill="url(#paint4_linear_6623_920)" fill-opacity="0.2"/>
<defs>
<linearGradient id="paint0_linear_6623_920" x1="135.255" y1="0" x2="135.255" y2="96.72" gradientUnits="userSpaceOnUse">
<stop stop-opacity="0"/>
<stop offset="1"/>
</linearGradient>
<linearGradient id="paint1_linear_6623_920" x1="135.255" y1="0" x2="135.255" y2="96.72" gradientUnits="userSpaceOnUse">
<stop stop-opacity="0"/>
<stop offset="1"/>
</linearGradient>
<linearGradient id="paint2_linear_6623_920" x1="135.255" y1="0" x2="135.255" y2="96.72" gradientUnits="userSpaceOnUse">
<stop stop-opacity="0"/>
<stop offset="1"/>
</linearGradient>
<linearGradient id="paint3_linear_6623_920" x1="135.255" y1="0" x2="135.255" y2="96.72" gradientUnits="userSpaceOnUse">
<stop stop-opacity="0"/>
<stop offset="1"/>
</linearGradient>
<linearGradient id="paint4_linear_6623_920" x1="135.255" y1="0" x2="135.255" y2="96.72" gradientUnits="userSpaceOnUse">
<stop stop-opacity="0"/>
<stop offset="1"/>
</linearGradient>
</defs>
</svg>
