<svg width="33" height="32" viewBox="0 0 33 32" fill="none" xmlns="http://www.w3.org/2000/svg">
<g clip-path="url(#clip0_6551_799)">
<path d="M24.1213 21.7893L31.7107 17.4067C31.9081 17.2921 32.072 17.1277 32.1862 16.9301C32.3004 16.7324 32.3607 16.5083 32.3613 16.28V7.51332C32.361 7.28482 32.3007 7.06042 32.1865 6.86249C32.0724 6.66456 31.9083 6.50003 31.7107 6.38532L24.12 2.00399C23.9218 1.89004 23.6972 1.83008 23.4687 1.83008C23.2401 1.83008 23.0155 1.89004 22.8173 2.00399L15.228 6.38532C15.0301 6.49987 14.8658 6.66432 14.7514 6.86226C14.637 7.0602 14.5765 7.28469 14.576 7.51332V23.176L9.25466 26.248L3.93199 23.176V17.0293L9.25466 13.9573L12.7653 15.984V11.8613L9.90533 10.2107C9.70717 10.0967 9.48258 10.0367 9.25399 10.0367C9.02541 10.0367 8.80082 10.0967 8.60266 10.2107L1.01199 14.5933C0.814381 14.708 0.650304 14.8726 0.536133 15.0705C0.421962 15.2684 0.361689 15.4928 0.361328 15.7213L0.361328 24.4853C0.361456 24.714 0.421618 24.9387 0.535801 25.1369C0.649983 25.3351 0.814186 25.4998 1.01199 25.6147L8.60266 29.996C8.80087 30.1098 9.02544 30.1697 9.25399 30.1697C9.48255 30.1697 9.70712 30.1098 9.90533 29.996L17.4947 25.6147C17.6925 25.5001 17.8569 25.3356 17.9713 25.1377C18.0857 24.9398 18.1462 24.7153 18.1467 24.4866V8.82399L18.2427 8.76932L23.4693 5.75199L28.7893 8.82532V14.9707L23.4693 18.0427L19.9627 16.02V20.1427L22.816 21.7907C23.0144 21.9047 23.2392 21.9647 23.468 21.9647C23.6968 21.9647 23.9216 21.9047 24.12 21.7907L24.1213 21.7893Z" fill="#A281FE"/>
</g>
<defs>
<clipPath id="clip0_6551_799">
<rect width="32" height="32" fill="white" transform="translate(0.361328)"/>
</clipPath>
</defs>
</svg>
