<svg width="33" height="32" viewBox="0 0 33 32" fill="none" xmlns="http://www.w3.org/2000/svg">
<g clip-path="url(#clip0_6623_1046)">
<path d="M23.9407 21.7893L31.53 17.4067C31.7274 17.2921 31.8914 17.1277 32.0055 16.9301C32.1197 16.7324 32.1801 16.5083 32.1807 16.28V7.51332C32.1803 7.28482 32.12 7.06042 32.0059 6.86249C31.8917 6.66456 31.7276 6.50003 31.53 6.38532L23.9393 2.00399C23.7412 1.89004 23.5166 1.83008 23.288 1.83008C23.0594 1.83008 22.8348 1.89004 22.6367 2.00399L15.0473 6.38532C14.8495 6.49987 14.6851 6.66432 14.5707 6.86226C14.4563 7.0602 14.3958 7.28469 14.3953 7.51332V23.176L9.074 26.248L3.75133 23.176V17.0293L9.074 13.9573L12.5847 15.984V11.8613L9.72466 10.2107C9.5265 10.0967 9.30192 10.0367 9.07333 10.0367C8.84475 10.0367 8.62016 10.0967 8.422 10.2107L0.831331 14.5933C0.633717 14.708 0.46964 14.8726 0.355469 15.0705C0.241298 15.2684 0.181025 15.4928 0.180664 15.7213L0.180664 24.4853C0.180792 24.714 0.240954 24.9387 0.355137 25.1369C0.469319 25.3351 0.633522 25.4998 0.831331 25.6147L8.422 29.996C8.6202 30.1098 8.84477 30.1697 9.07333 30.1697C9.30189 30.1697 9.52646 30.1098 9.72466 29.996L17.314 25.6147C17.5119 25.5001 17.6762 25.3356 17.7906 25.1377C17.905 24.9398 17.9655 24.7153 17.966 24.4866V8.82399L18.062 8.76932L23.2887 5.75199L28.6087 8.82532V14.9707L23.2887 18.0427L19.782 16.02V20.1427L22.6353 21.7907C22.8337 21.9047 23.0585 21.9647 23.2873 21.9647C23.5162 21.9647 23.741 21.9047 23.9393 21.7907L23.9407 21.7893Z" fill="#A281FE"/>
</g>
<defs>
<clipPath id="clip0_6623_1046">
<rect width="32" height="32" fill="white" transform="translate(0.180664)"/>
</clipPath>
</defs>
</svg>
