<svg width="33" height="32" viewBox="0 0 33 32" fill="none" xmlns="http://www.w3.org/2000/svg">
<g clip-path="url(#clip0_6525_1522)">
<path d="M24.1218 21.7893L31.7111 17.4067C31.9086 17.2921 32.0725 17.1277 32.1867 16.9301C32.3008 16.7324 32.3612 16.5083 32.3618 16.28V7.51332C32.3615 7.28482 32.3012 7.06042 32.187 6.86249C32.0728 6.66456 31.9088 6.50003 31.7111 6.38532L24.1205 2.00399C23.9223 1.89004 23.6977 1.83008 23.4691 1.83008C23.2406 1.83008 23.016 1.89004 22.8178 2.00399L15.2285 6.38532C15.0306 6.49987 14.8663 6.66432 14.7519 6.86226C14.6375 7.0602 14.577 7.28469 14.5765 7.51332V23.176L9.25515 26.248L3.93248 23.176V17.0293L9.25515 13.9573L12.7658 15.984V11.8613L9.90582 10.2107C9.70765 10.0967 9.48307 10.0367 9.25448 10.0367C9.0259 10.0367 8.80131 10.0967 8.60315 10.2107L1.01248 14.5933C0.81487 14.708 0.650792 14.8726 0.536621 15.0705C0.42245 15.2684 0.362177 15.4928 0.361816 15.7213L0.361816 24.4853C0.361944 24.714 0.422106 24.9387 0.536289 25.1369C0.650472 25.3351 0.814674 25.4998 1.01248 25.6147L8.60315 29.996C8.80136 30.1098 9.02592 30.1697 9.25448 30.1697C9.48304 30.1697 9.70761 30.1098 9.90582 29.996L17.4952 25.6147C17.693 25.5001 17.8574 25.3356 17.9718 25.1377C18.0862 24.9398 18.1467 24.7153 18.1471 24.4866V8.82399L18.2432 8.76932L23.4698 5.75199L28.7898 8.82532V14.9707L23.4698 18.0427L19.9632 16.02V20.1427L22.8165 21.7907C23.0148 21.9047 23.2397 21.9647 23.4685 21.9647C23.6973 21.9647 23.9221 21.9047 24.1205 21.7907L24.1218 21.7893Z" fill="#A281FE"/>
</g>
<defs>
<clipPath id="clip0_6525_1522">
<rect width="32" height="32" fill="white" transform="translate(0.361816)"/>
</clipPath>
</defs>
</svg>
