<svg width="33" height="32" viewBox="0 0 33 32" fill="none" xmlns="http://www.w3.org/2000/svg">
<g clip-path="url(#clip0_6444_177)">
<path d="M24.1218 21.7893L31.7111 17.4067C31.9085 17.2921 32.0725 17.1277 32.1866 16.9301C32.3008 16.7324 32.3612 16.5083 32.3618 16.28V7.51332C32.3614 7.28482 32.3011 7.06042 32.187 6.86249C32.0728 6.66456 31.9087 6.50003 31.7111 6.38532L24.1204 2.00399C23.9223 1.89004 23.6977 1.83008 23.4691 1.83008C23.2405 1.83008 23.0159 1.89004 22.8178 2.00399L15.2284 6.38532C15.0306 6.49987 14.8662 6.66432 14.7518 6.86226C14.6374 7.0602 14.5769 7.28469 14.5764 7.51332V23.176L9.25509 26.248L3.93242 23.176V17.0293L9.25509 13.9573L12.7658 15.984V11.8613L9.90576 10.2107C9.70759 10.0967 9.48301 10.0367 9.25442 10.0367C9.02584 10.0367 8.80125 10.0967 8.60309 10.2107L1.01242 14.5933C0.814809 14.708 0.650731 14.8726 0.53656 15.0705C0.422389 15.2684 0.362116 15.4928 0.361755 15.7213L0.361755 24.4853C0.361883 24.714 0.422045 24.9387 0.536228 25.1369C0.650411 25.3351 0.814613 25.4998 1.01242 25.6147L8.60309 29.996C8.8013 30.1098 9.02586 30.1697 9.25442 30.1697C9.48298 30.1697 9.70755 30.1098 9.90576 29.996L17.4951 25.6147C17.693 25.5001 17.8573 25.3356 17.9717 25.1377C18.0861 24.9398 18.1466 24.7153 18.1471 24.4867V8.82399L18.2431 8.76932L23.4698 5.75199L28.7898 8.82532V14.9707L23.4698 18.0427L19.9631 16.02V20.1427L22.8164 21.7907C23.0148 21.9047 23.2396 21.9647 23.4684 21.9647C23.6972 21.9647 23.9221 21.9047 24.1204 21.7907L24.1218 21.7893Z" fill="white"/>
</g>
<defs>
<clipPath id="clip0_6444_177">
<rect width="32" height="32" fill="white" transform="translate(0.361755)"/>
</clipPath>
</defs>
</svg>
