<svg width="33" height="32" viewBox="0 0 33 32" fill="none" xmlns="http://www.w3.org/2000/svg">
<g clip-path="url(#clip0_6623_1046)">
<path d="M23.9416 21.7893L31.531 17.4067C31.7284 17.2921 31.8923 17.1277 32.0065 16.9301C32.1207 16.7324 32.181 16.5083 32.1816 16.28V7.51332C32.1813 7.28482 32.121 7.06042 32.0068 6.86249C31.8927 6.66456 31.7286 6.50003 31.531 6.38532L23.9403 2.00399C23.7421 1.89004 23.5176 1.83008 23.289 1.83008C23.0604 1.83008 22.8358 1.89004 22.6376 2.00399L15.0483 6.38532C14.8504 6.49987 14.6861 6.66432 14.5717 6.86226C14.4573 7.0602 14.3968 7.28469 14.3963 7.51332V23.176L9.07497 26.248L3.75231 23.176V17.0293L9.07497 13.9573L12.5856 15.984V11.8613L9.72564 10.2107C9.52748 10.0967 9.30289 10.0367 9.07431 10.0367C8.84572 10.0367 8.62114 10.0967 8.42297 10.2107L0.832307 14.5933C0.634694 14.708 0.470616 14.8726 0.356445 15.0705C0.242274 15.2684 0.182001 15.4928 0.181641 15.7213L0.181641 24.4853C0.181768 24.714 0.241931 24.9387 0.356113 25.1369C0.470296 25.3351 0.634499 25.4998 0.832307 25.6147L8.42297 29.996C8.62118 30.1098 8.84575 30.1697 9.07431 30.1697C9.30287 30.1697 9.52744 30.1098 9.72564 29.996L17.315 25.6147C17.5128 25.5001 17.6772 25.3356 17.7916 25.1377C17.906 24.9398 17.9665 24.7153 17.967 24.4866V8.82399L18.063 8.76932L23.2896 5.75199L28.6096 8.82532V14.9707L23.2896 18.0427L19.783 16.02V20.1427L22.6363 21.7907C22.8347 21.9047 23.0595 21.9647 23.2883 21.9647C23.5171 21.9647 23.7419 21.9047 23.9403 21.7907L23.9416 21.7893Z" fill="#A281FE"/>
</g>
<defs>
<clipPath id="clip0_6623_1046">
<rect width="32" height="32" fill="white" transform="translate(0.181641)"/>
</clipPath>
</defs>
</svg>
